#!OML:ASF E:\Steps\Project 1\Capture day 1\Session 2\Subject.ASF
:FULLY-SPECIFIED
:DEGREES
255
root 16.0403 16.5658 21.4674 -154.372 -10.9385 171.625
lowerback -19.2462 -0.570896 -6.08227
upperback 2.62216 0.74983 -0.63137
thorax 13.8003 -0.122862 2.97906
lowerneck -4.70332 0.326479 -1.57473
upperneck 24.2316 -1.9806 3.86468
head 8.31363 -1.33211 1.30574
rclavicle 2.18663e-014 -6.12257e-014
rhumerus -30.6011 -13.9859 -77.7235
rradius 37.7141
rwrist -2.7843
rhand -9.82804 -412.894
rfingers 7.12502
rthumb -163.851 97.7591
lclavicle 2.18663e-014 -6.12257e-014
lhumerus -28.3678 1.69583 81.7308
lradius 29.3389
lwrist -2.13739
lhand -22.9552 -15.1868
lfingers 7.12502
lthumb 3.48636 14.7645
rfemur -21.7523 5.7716 11.2197
rtibia 10.9699
rfoot -22.1721 -14.3855
rtoes -11.1687
lfemur -72.162 -7.77035 -10.8957
ltibia 59.9716
lfoot -9.17127 -2.80377
ltoes -47.6121
256
root 16.0006 16.5659 21.436 -154.375 -10.9002 171.68
lowerback -19.0564 -0.572968 -6.11284
upperback 2.62384 0.736771 -0.593584
thorax 13.6903 -0.128825 3.03345
lowerneck -4.05825 0.278847 -1.63695
upperneck 23.1922 -1.89476 3.85811
head 7.84279 -1.27888 1.32509
rclavicle -4.37326e-015 4.77083e-015
rhumerus -30.6377 -13.9567 -77.6878
rradius 38.0032
rwrist -2.72097
rhand -9.80361 -413.812
rfingers 7.12502
rthumb -163.827 96.8424
lclavicle -4.37326e-015 4.77083e-015
lhumerus -28.4224 1.38369 81.8195
lradius 29.3624
lwrist -2.15879
lhand -23.3077 -15.1058
lfingers 7.12502
lthumb 3.14592 14.8507
rfemur -21.5355 5.82164 11.14
rtibia 10.8315
rfoot -22.2539 -14.4567
rtoes -11.0973
lfemur -71.823 -7.88949 -10.9506
ltibia 59.5756
lfoot -8.99886 -2.94265
ltoes -47.2363
257
root 15.956 16.5649 21.4066 -154.293 -10.8086 171.628
lowerback -18.9156 -0.57319 -6.20505
upperback 2.6425 0.752014 -0.623824
thorax 13.6274 -0.125908 3.05472
lowerneck -3.94622 0.202156 -1.34844
upperneck 22.7651 -1.88067 3.48526
head 7.67576 -1.26523 1.15564
rclavicle -6.75868e-015 1.03368e-014
rhumerus -30.6402 -13.8774 -77.7239
rradius 38.4173
rwrist -3.24655
rhand -9.7261 -414.527
rfingers 7.12502
rthumb -163.753 96.1336
lclavicle -6.75868e-015 1.03368e-014
lhumerus -28.3742 1.16061 81.823
lradius 29.3926
lwrist -2.12419
lhand -23.2509 -14.557
lfingers 7.12502
lthumb 3.2008 15.3987
rfemur -21.3971 5.88787 10.8848
rtibia 10.6952
rfoot -22.3696 -14.5457
rtoes -11.0846
lfemur -71.5417 -8.13242 -11.0623
ltibia 59.2553
lfoot -8.90987 -3.09751
ltoes -46.1737
258
root 15.9081 16.5623 21.3732 -154.183 -10.7317 171.595
lowerback -18.8935 -0.584996 -6.27462
upperback 2.70473 0.758361 -0.657285
thorax 13.6872 -0.129953 3.05805
lowerneck -4.18682 0.154179 -1.09989
upperneck 22.8254 -1.91305 3.24095
head 7.73713 -1.27308 1.02963
rclavicle 1.8487e-014 -3.33958e-014
rhumerus -30.537 -13.6487 -77.8418
rradius 38.5874
rwrist -3.7316
rhand -9.65651 -415.508
rfingers 7.12502
rthumb -163.686 95.1584
lclavicle 1.8487e-014 -3.33958e-014
lhumerus -28.2527 1.047 81.7393
lradius 29.4772
lwrist -2.08411
lhand -23.0285 -13.9033
lfingers 7.12502
lthumb 3.41554 16.049
rfemur -21.2183 5.92563 10.6432
rtibia 10.4406
rfoot -22.4587 -14.5659
rtoes -11.0418
lfemur -71.3875 -8.38828 -11.1848
ltibia 59.0712
lfoot -8.904 -3.13436
ltoes -45.9685
259
root 15.8676 16.5588 21.3437 -154.009 -10.8505 171.574
lowerback -18.8358 -0.702019 -6.40363
upperback 2.72822 0.624116 -0.611978
thorax 13.694 -0.204414 3.1417
lowerneck -4.24269 0.165912 -1.13024
upperneck 22.8966 -1.91463 3.28959
head 7.77153 -1.27327 1.0502
rclavicle -1.39149e-014 -3.81667e-014
rhumerus -30.3325 -13.4912 -77.8895
rradius 38.6012
rwrist -3.75553
rhand -9.81406 -414.863
rfingers 7.12502
rthumb -163.837 95.791
lclavicle -1.39149e-014 -3.81667e-014
lhumerus -28.2073 1.0884 81.6538
lradius 29.5736
lwrist -2.14015
lhand -22.9456 -13.7605
lfingers 7.12502
lthumb 3.49566 16.1906
rfemur -21.1505 6.02114 10.5015
rtibia 10.3672
rfoot -22.6078 -14.873
rtoes -11.2946
lfemur -71.3762 -8.63674 -11.2945
ltibia 58.8762
lfoot -8.8225 -3.27636
ltoes -45.2341
